Coordinates
version=1
nRows=18
nColumns=38
inDegrees=no

Units are S.I. units (second, meters, Newtons, ...)
If the header above contains a line with 'inDegrees', this indicates whether rotational values are in degrees (yes) or radians (no).

endheader
time	pelvis_tilt	pelvis_list	pelvis_rotation	pelvis_tx	pelvis_ty	pelvis_tz	hip_flexion_r	hip_adduction_r	hip_rotation_r	knee_angle_r	ankle_angle_r	subtalar_angle_r	mtp_angle_r	hip_flexion_l	hip_adduction_l	hip_rotation_l	knee_angle_l	ankle_angle_l	subtalar_angle_l	mtp_angle_l	lumbar_extension	lumbar_bending	lumbar_rotation	arm_flex_r	arm_add_r	arm_rot_r	elbow_flex_r	pro_sup_r	wrist_flex_r	wrist_dev_r	arm_flex_l	arm_add_l	arm_rot_l	elbow_flex_l	pro_sup_l	wrist_flex_l	wrist_dev_l
3.515	-0.0093467	0.0300752	-0.118803	1.95775	0.975577	-0.502918	0.419122	-0.0746077	0.0902352	1.25779	0.0715213	0.0463489	-0.0230796	0.246971	0.0505477	-0.0108144	0.407038	0.265814	-0.0556273	-0.0251533	-0.173727	-0.0745794	0.0563357	-0.139388	-0.0875566	-0.0333498	0.73694	1.11801	0.00139679	-0.000244118	-0.142981	-0.117122	-0.101264	0.865921	1.34799	0.00236563	-0.0017668
3.52	-0.00700182	0.0280638	-0.119017	1.96354	0.976865	-0.503151	0.428142	-0.0720664	0.087527	1.24925	0.0780446	0.046002	-0.0230796	0.232783	0.0504158	-0.00791827	0.39778	0.267311	-0.0554028	-0.0251533	-0.176925	-0.0718807	0.0539499	-0.144097	-0.0877865	-0.0357109	0.726805	1.12022	0.00139679	-0.000244118	-0.139493	-0.118977	-0.1017	0.876891	1.34473	0.00236563	-0.0017668
3.525	-0.00451055	0.0258692	-0.119138	1.96934	0.978139	-0.503364	0.436324	-0.0693387	0.0845029	1.23918	0.0840468	0.0455405	-0.0230796	0.218256	0.0500943	-0.00482184	0.388229	0.268681	-0.055254	-0.0251533	-0.180289	-0.0690252	0.0515807	-0.148945	-0.0881206	-0.0384204	0.717203	1.12276	0.00139679	-0.000244118	-0.136163	-0.120915	-0.102101	0.888137	1.34124	0.00236563	-0.0017668
3.53	-0.00190137	0.023483	-0.11917	1.97515	0.979391	-0.503556	0.443689	-0.0664082	0.0811808	1.22762	0.0895526	0.0449597	-0.0230796	0.203441	0.0495586	-0.00154445	0.378426	0.269957	-0.0551765	-0.0251533	-0.183792	-0.0660047	0.0492402	-0.153927	-0.0885476	-0.0414962	0.708139	1.12563	0.00139679	-0.000244118	-0.132983	-0.122937	-0.102468	0.899659	1.33752	0.00236563	-0.0017668
3.535	0.000788629	0.0209004	-0.119113	1.98096	0.980611	-0.503728	0.45027	-0.0632621	0.0775783	1.2146	0.0945914	0.0442554	-0.0230796	0.1884	0.0487882	0.00189655	0.368412	0.271168	-0.0551638	-0.0251533	-0.187398	-0.0628117	0.046936	-0.15904	-0.0890562	-0.0449503	0.699615	1.12882	0.00139679	-0.000244118	-0.129948	-0.125046	-0.102804	0.911453	1.33358	0.00236563	-0.0017668
3.54	0.00351417	0.018122	-0.118965	1.98678	0.981792	-0.503878	0.456111	-0.059892	0.0737148	1.20015	0.0991944	0.043424	-0.0230796	0.173206	0.0477686	0.00548456	0.358228	0.272341	-0.0552075	-0.0251533	-0.191061	-0.0594417	0.0446724	-0.164278	-0.0896349	-0.0487894	0.691626	1.13232	0.00139679	-0.000244118	-0.12705	-0.127239	-0.103115	0.923511	1.32946	0.00236563	-0.0017668
3.545	0.00623113	0.0151526	-0.118725	1.9926	0.982926	-0.504008	0.461253	-0.0562933	0.0696138	1.1843	0.103392	0.0424624	-0.0230796	0.157929	0.0464911	0.00920143	0.347914	0.273497	-0.0552959	-0.0251533	-0.194736	-0.0558933	0.0424521	-0.169639	-0.0902733	-0.0530112	0.684168	1.13606	0.00139679	-0.000244118	-0.124281	-0.129515	-0.103407	0.935825	1.32521	0.00236563	-0.0017668
3.55	0.00890724	0.0120003	-0.118392	1.99842	0.984004	-0.504118	0.465722	-0.0524642	0.065306	1.16703	0.10721	0.0413676	-0.0230796	0.142621	0.0449531	0.0130243	0.3375	0.274652	-0.0554126	-0.0251533	-0.19839	-0.0521692	0.0402798	-0.175118	-0.0909624	-0.0576034	0.677233	1.13999	0.00139679	-0.000244118	-0.121633	-0.13187	-0.103678	0.94838	1.32083	0.00236563	-0.0017668
3.555	0.011533	0.00867552	-0.117975	2.00425	0.985024	-0.504209	0.469514	-0.0484041	0.0608325	1.14836	0.110672	0.0401371	-0.0230796	0.1273	0.0431575	0.0169221	0.327001	0.275811	-0.0555349	-0.0251533	-0.202009	-0.0482766	0.0381652	-0.180711	-0.0916948	-0.0625471	0.670815	1.144	0.00139679	-0.000244118	-0.119095	-0.134301	-0.103926	0.961163	1.31634	0.00236563	-0.0017668
3.56	0.0141303	0.00518878	-0.117488	2.01009	0.985984	-0.504281	0.47258	-0.0441126	0.0562453	1.12827	0.113793	0.0387686	-0.0230796	0.111937	0.0411123	0.0208537	0.316417	0.276972	-0.0556332	-0.0251533	-0.205616	-0.0442274	0.036125	-0.186414	-0.0924637	-0.067824	0.664904	1.14803	0.00139679	-0.000244118	-0.116656	-0.1368	-0.104149	0.974156	1.31175	0.00236563	-0.0017668
3.565	0.0167457	0.00155213	-0.116951	2.01593	0.986886	-0.504334	0.474838	-0.0395901	0.0516063	1.10671	0.116582	0.0372601	-0.0230796	0.0964658	0.0388309	0.0247696	0.30573	0.278124	-0.055673	-0.0251533	-0.209255	-0.0400383	0.0341811	-0.192224	-0.0932631	-0.0734124	0.659495	1.15203	0.00139679	-0.000244118	-0.114307	-0.139361	-0.10434	0.98734	1.30704	0.00236563	-0.0017668
3.57	0.019439	-0.00222027	-0.116387	2.02179	0.987735	-0.504368	0.476191	-0.0348402	0.0469829	1.08365	0.119039	0.0356106	-0.0230796	0.080801	0.036332	0.0286169	0.294917	0.279248	-0.0556188	-0.0251533	-0.212986	-0.0357303	0.0323572	-0.198139	-0.0940876	-0.0792885	0.654579	1.15593	0.00139679	-0.000244118	-0.112035	-0.141974	-0.104495	1.0007	1.30224	0.00236563	-0.0017668
3.575	0.022269	-0.00611121	-0.115813	2.02766	0.988532	-0.504382	0.47654	-0.0298711	0.0424419	1.05906	0.121152	0.0338192	-0.0230796	0.0648604	0.0336388	0.032346	0.283957	0.280326	-0.0554365	-0.0251533	-0.216867	-0.0313271	0.030672	-0.204155	-0.0949298	-0.0854338	0.650149	1.15974	0.00139679	-0.000244118	-0.10983	-0.14463	-0.104608	1.0142	1.29735	0.00236563	-0.0017668
3.58	0.0252703	-0.0100966	-0.115239	2.03355	0.989281	-0.504378	0.475826	-0.0247008	0.0380442	1.03289	0.122902	0.0318854	-0.0230796	0.0486004	0.0307813	0.0359191	0.272841	0.281339	-0.0551008	-0.0251533	-0.220932	-0.0268566	0.0291332	-0.210268	-0.0957802	-0.0918281	0.646194	1.16347	0.00139679	-0.000244118	-0.10768	-0.147322	-0.104679	1.02784	1.29243	0.00236563	-0.0017668
3.585	0.0284311	-0.0141418	-0.114658	2.03945	0.989979	-0.504358	0.474055	-0.0193608	0.03384	1.00516	0.124262	0.0298096	-0.0230796	0.0320495	0.027797	0.0393196	0.261587	0.282278	-0.0546019	-0.0251533	-0.225166	-0.0223515	0.0277301	-0.21647	-0.0966264	-0.0984445	0.6427	1.16709	0.00139679	-0.000244118	-0.105575	-0.150044	-0.104704	1.04158	1.28751	0.00236563	-0.0017668
3.59	0.0316755	-0.018199	-0.114047	2.04537	0.990617	-0.504325	0.471326	-0.0138988	0.029865	0.975863	0.125195	0.0275919	-0.0230796	0.0153356	0.0247311	0.0425585	0.250251	0.283144	-0.0539503	-0.0251533	-0.22949	-0.0178495	0.026429	-0.222752	-0.0974517	-0.10525	0.63965	1.17062	0.00139679	-0.000244118	-0.103505	-0.152798	-0.104687	1.05541	1.28266	0.00236563	-0.0017668
3.595	0.0348612	-0.0222092	-0.113363	2.0513	0.991182	-0.504282	0.467837	-0.008376	0.0261387	0.945063	0.125662	0.0252296	-0.0230796	-0.00130892	0.0216324	0.0456769	0.238927	0.283956	-0.0531757	-0.0251533	-0.233753	-0.0133906	0.0251718	-0.229099	-0.0982348	-0.112204	0.637017	1.17399	0.00139679	-0.000244118	-0.10146	-0.155589	-0.104627	1.0693	1.27796	0.00236563	-0.0017668
3.6	0.037788	-0.0261058	-0.112552	2.05723	0.991653	-0.504236	0.463873	-0.00286076	0.0226673	0.912838	0.12562	0.0227144	-0.0230796	-0.0175614	0.0185482	0.0487415	0.227743	0.28475	-0.0523227	-0.0251533	-0.237747	-0.00901398	0.02388	-0.235491	-0.0989501	-0.119257	0.634771	1.17715	0.00139679	-0.000244118	-0.099434	-0.158428	-0.104523	1.08324	1.27343	0.00236563	-0.0017668
